<svg width="128" height="128" viewBox="0 0 128 128" fill="none" xmlns="http://www.w3.org/2000/svg">
<rect width="128" height="128" rx="25" fill="#1E1E1E"/>
<path d="M21.58 75.286C17.004 75.286 13.55 71.722 13.55 67.322C13.55 62.9 16.828 59.314 21.58 59.314C24.088 59.314 25.826 60.084 27.212 61.734L25.034 63.626C24.11 62.658 22.966 62.174 21.58 62.174C18.61 62.174 16.74 64.506 16.74 67.322C16.74 70.138 18.61 72.426 21.646 72.426C23.142 72.426 24.264 71.92 25.166 70.93L27.41 72.844C26.244 74.252 24.264 75.286 21.58 75.286ZM33.4559 75.286C29.9139 75.286 27.3619 72.602 27.3619 69.302C27.3619 66.002 29.9139 63.296 33.4559 63.296C36.9979 63.296 39.5499 66.002 39.5499 69.302C39.5499 72.602 36.9979 75.286 33.4559 75.286ZM30.3319 69.302C30.3319 71.084 31.5639 72.58 33.4559 72.58C35.3479 72.58 36.5799 71.084 36.5799 69.302C36.5799 67.52 35.3479 66.002 33.4559 66.002C31.5639 66.002 30.3319 67.52 30.3319 69.302ZM45.971 75.286C42.825 75.286 40.317 72.624 40.317 69.324C40.317 66.024 42.825 63.318 45.971 63.318C47.929 63.318 48.963 64.11 49.579 65.32V58.94H52.549V75H49.667V73.13C49.051 74.428 48.017 75.286 45.971 75.286ZM43.287 69.302C43.287 71.04 44.563 72.602 46.455 72.602C48.413 72.602 49.667 71.106 49.667 69.324C49.667 67.542 48.413 66.002 46.455 66.002C44.563 66.002 43.287 67.52 43.287 69.302ZM59.7916 75.286C56.2496 75.286 53.8736 72.602 53.8736 69.302C53.8736 66.002 56.3596 63.274 59.7916 63.274C63.2236 63.274 65.5996 66.002 65.5996 69.302C65.5996 69.632 65.5776 69.984 65.5116 70.358H56.9536C57.2836 71.7 58.2956 72.646 59.7916 72.646C61.0676 72.646 62.0576 71.986 62.5856 71.106L64.8956 72.844C63.9716 74.274 62.0576 75.286 59.7916 75.286ZM56.9536 68.136H62.6076C62.2776 66.86 61.1996 65.826 59.7476 65.826C58.3396 65.826 57.2836 66.772 56.9536 68.136ZM74.6034 75.286C70.0274 75.286 66.5734 71.722 66.5734 67.322C66.5734 62.9 69.8514 59.314 74.6034 59.314C77.1114 59.314 78.8494 60.084 80.2354 61.734L78.0574 63.626C77.1334 62.658 75.9894 62.174 74.6034 62.174C71.6334 62.174 69.7634 64.506 69.7634 67.322C69.7634 70.138 71.6334 72.426 74.6694 72.426C76.1654 72.426 77.2874 71.92 78.1894 70.93L80.4334 72.844C79.2674 74.252 77.2874 75.286 74.6034 75.286ZM81.4698 75V63.56H84.3518V65.738C84.7478 64.088 85.9138 63.186 87.8938 63.296V66.09H87.4758C85.7598 66.09 84.4398 67.234 84.4398 69.148V75H81.4698ZM93.5374 75.286C90.3914 75.286 87.8834 72.624 87.8834 69.324C87.8834 66.024 90.3914 63.318 93.5374 63.318C95.5174 63.318 96.5514 64.132 97.1674 65.364V63.56H100.115V75H97.2334V73.13C96.6174 74.428 95.5834 75.286 93.5374 75.286ZM90.8534 69.302C90.8534 71.04 92.1294 72.602 94.0214 72.602C95.9794 72.602 97.2334 71.106 97.2334 69.324C97.2334 67.542 95.9794 66.002 94.0214 66.002C92.1294 66.002 90.8534 67.52 90.8534 69.302ZM102.716 62.79C102.716 60.48 104.212 58.94 106.522 58.94H107.754V61.47H106.984C106.104 61.47 105.686 61.932 105.686 62.834V63.56H108.018V66.09H105.686V75H102.716V66.09H101.11V63.56H102.716V62.79ZM113.562 75C111.296 75 110.064 73.944 110.064 71.458V66.09H108.458V63.56H110.064V61.25L113.034 60.942V63.56H115.454V66.09H113.034V71.304C113.034 72.03 113.386 72.36 113.958 72.36H115.19V75H113.562Z" fill="white"/>
</svg>
